<svg width="12" height="9" viewBox="0 0 12 9" fill="none" xmlns="http://www.w3.org/2000/svg">
<mask id="path-1-inside-1_1489_4814" fill="white">
<path d="M3.98197 7.92672C3.78671 7.73146 3.78671 7.41488 3.98197 7.21961L11.0551 0.146447C11.2504 -0.0488153 11.567 -0.0488158 11.7622 0.146446C11.9575 0.341708 11.9575 0.658291 11.7622 0.853553L4.68908 7.92672C4.49382 8.12198 4.17723 8.12198 3.98197 7.92672Z"/>
<path d="M0.146447 3.39303C0.341709 3.19777 0.658291 3.19777 0.853553 3.39303L4.67992 7.21939C4.87518 7.41465 4.87518 7.73124 4.67992 7.9265C4.48465 8.12176 4.16807 8.12176 3.97281 7.9265L0.146446 4.10014C-0.0488156 3.90487 -0.0488154 3.58829 0.146447 3.39303Z"/>
</mask>
<path d="M4.68908 7.92672L5.39619 8.63383L4.68908 7.92672ZM11.7622 0.853553L11.0551 0.146446L11.7622 0.853553ZM11.0551 0.146447L10.348 -0.56066L11.0551 0.146447ZM3.98197 7.21961L4.68908 7.92672L3.98197 7.21961ZM0.146446 4.10014L-0.56066 4.80724H-0.56066L0.146446 4.10014ZM3.97281 7.9265L4.67992 7.21939L3.97281 7.9265ZM4.67992 7.21939L5.38702 6.51229L4.67992 7.21939ZM0.853553 3.39303L0.146447 4.10014H0.146447L0.853553 3.39303ZM3.98197 7.21961L4.68908 7.92672L11.7622 0.853554L11.0551 0.146447L10.348 -0.56066L3.27486 6.51251L3.98197 7.21961ZM11.7622 0.853553L11.0551 0.146446L3.98197 7.21961L4.68908 7.92672L5.39619 8.63383L12.4694 1.56066L11.7622 0.853553ZM4.68908 7.92672L3.98197 7.21961C4.17723 7.02435 4.49381 7.02435 4.68908 7.21961L3.98197 7.92672L3.27486 8.63383C3.86065 9.21961 4.8104 9.21961 5.39619 8.63383L4.68908 7.92672ZM11.7622 0.146446L11.0551 0.853553C10.8599 0.658291 10.8599 0.341709 11.0551 0.146446L11.7622 0.853553L12.4694 1.56066C13.0551 0.974874 13.0551 0.025126 12.4694 -0.56066L11.7622 0.146446ZM11.0551 0.146447L11.7622 0.853554C11.567 1.04881 11.2504 1.04882 11.0551 0.853553L11.7622 0.146446L12.4694 -0.56066C11.8836 -1.14645 10.9338 -1.14645 10.348 -0.56066L11.0551 0.146447ZM3.98197 7.21961L3.27486 6.51251C2.68908 7.09829 2.68908 8.04804 3.27486 8.63383L3.98197 7.92672L4.68908 7.21961C4.88434 7.41488 4.88434 7.73146 4.68908 7.92672L3.98197 7.21961ZM0.853553 3.39303L0.146447 4.10014L3.97281 7.9265L4.67992 7.21939L5.38702 6.51229L1.56066 2.68592L0.853553 3.39303ZM3.97281 7.9265L4.67992 7.21939L0.853553 3.39303L0.146446 4.10014L-0.56066 4.80724L3.2657 8.63361L3.97281 7.9265ZM0.146446 4.10014L0.853553 3.39303C1.04882 3.58829 1.04882 3.90487 0.853553 4.10014L0.146447 3.39303L-0.56066 2.68592C-1.14645 3.27171 -1.14645 4.22146 -0.56066 4.80724L0.146446 4.10014ZM4.67992 7.9265L3.97281 7.21939C4.16807 7.02413 4.48465 7.02413 4.67992 7.21939L3.97281 7.9265L3.2657 8.63361C3.85149 9.21939 4.80124 9.21939 5.38702 8.63361L4.67992 7.9265ZM4.67992 7.21939L3.97281 7.9265C3.77755 7.73124 3.77755 7.41465 3.97281 7.21939L4.67992 7.9265L5.38702 8.63361C5.97281 8.04782 5.97281 7.09807 5.38702 6.51229L4.67992 7.21939ZM0.853553 3.39303L1.56066 2.68592C0.974874 2.10014 0.0251263 2.10014 -0.56066 2.68592L0.146447 3.39303L0.853553 4.10014C0.658291 4.2954 0.341709 4.2954 0.146447 4.10014L0.853553 3.39303Z" fill="#F9F9F9" mask="url(#path-1-inside-1_1489_4814)"/>
</svg>
