<svg width="16" height="13" viewBox="0 0 16 13" fill="none" xmlns="http://www.w3.org/2000/svg">
<g filter="url(#filter0_d_1489_4817)">
<mask id="path-1-inside-1_1489_4817" fill="white">
<path d="M3.14645 10.0459C2.95118 9.85068 2.95118 9.5341 3.14645 9.33883L12.3388 0.146447C12.5341 -0.0488156 12.8507 -0.0488154 13.0459 0.146447C13.2412 0.341709 13.2412 0.658291 13.0459 0.853553L3.85355 10.0459C3.65829 10.2412 3.34171 10.2412 3.14645 10.0459Z"/>
<path d="M3.14645 0.146447C3.34171 -0.0488153 3.65829 -0.0488153 3.85355 0.146447L13.0459 9.33883C13.2412 9.5341 13.2412 9.85068 13.0459 10.0459C12.8507 10.2412 12.5341 10.2412 12.3388 10.0459L3.14645 0.853553C2.95118 0.658291 2.95118 0.341709 3.14645 0.146447Z"/>
</mask>
<path d="M3.85355 10.0459L3.14645 9.33883L3.85355 10.0459ZM13.0459 0.853553L13.753 1.56066L13.0459 0.853553ZM12.3388 0.146447L11.6317 -0.56066L12.3388 0.146447ZM3.14645 9.33883L3.85355 10.0459L3.14645 9.33883ZM3.14645 0.853553L2.43934 1.56066L3.14645 0.853553ZM12.3388 10.0459L13.0459 9.33883L12.3388 10.0459ZM13.0459 9.33883L12.3388 10.0459L13.0459 9.33883ZM3.85355 0.146447L4.56066 -0.56066L3.85355 0.146447ZM3.14645 9.33883L3.85355 10.0459L13.0459 0.853553L12.3388 0.146447L11.6317 -0.56066L2.43934 8.63173L3.14645 9.33883ZM13.0459 0.853553L12.3388 0.146447L3.14645 9.33883L3.85355 10.0459L4.56066 10.753L13.753 1.56066L13.0459 0.853553ZM3.85355 10.0459L3.14645 9.33883C3.34171 9.14357 3.65829 9.14357 3.85355 9.33883L3.14645 10.0459L2.43934 10.753C3.02513 11.3388 3.97487 11.3388 4.56066 10.753L3.85355 10.0459ZM13.0459 0.146447L12.3388 0.853553C12.1436 0.658291 12.1436 0.341709 12.3388 0.146447L13.0459 0.853553L13.753 1.56066C14.3388 0.974874 14.3388 0.0251263 13.753 -0.56066L13.0459 0.146447ZM12.3388 0.146447L13.0459 0.853553C12.8507 1.04882 12.5341 1.04882 12.3388 0.853553L13.0459 0.146447L13.753 -0.56066C13.1673 -1.14645 12.2175 -1.14645 11.6317 -0.56066L12.3388 0.146447ZM3.14645 9.33883L2.43934 8.63173C1.85355 9.21751 1.85355 10.1673 2.43934 10.753L3.14645 10.0459L3.85355 9.33883C4.04882 9.5341 4.04882 9.85068 3.85355 10.0459L3.14645 9.33883ZM3.85355 0.146447L3.14645 0.853554L12.3388 10.0459L13.0459 9.33883L13.753 8.63173L4.56066 -0.56066L3.85355 0.146447ZM12.3388 10.0459L13.0459 9.33883L3.85355 0.146447L3.14645 0.853553L2.43934 1.56066L11.6317 10.753L12.3388 10.0459ZM3.14645 0.853553L3.85355 0.146447C4.04882 0.341709 4.04882 0.658292 3.85355 0.853554L3.14645 0.146447L2.43934 -0.56066C1.85355 0.025126 1.85355 0.974873 2.43934 1.56066L3.14645 0.853553ZM13.0459 10.0459L12.3388 9.33883C12.5341 9.14357 12.8507 9.14357 13.0459 9.33883L12.3388 10.0459L11.6317 10.753C12.2175 11.3388 13.1673 11.3388 13.753 10.753L13.0459 10.0459ZM13.0459 9.33883L12.3388 10.0459C12.1436 9.85068 12.1436 9.5341 12.3388 9.33883L13.0459 10.0459L13.753 10.753C14.3388 10.1673 14.3388 9.21751 13.753 8.63173L13.0459 9.33883ZM3.85355 0.146447L4.56066 -0.56066C3.97487 -1.14645 3.02513 -1.14645 2.43934 -0.56066L3.14645 0.146447L3.85355 0.853554C3.65829 1.04882 3.34171 1.04882 3.14645 0.853554L3.85355 0.146447Z" fill="#F9F9F9" mask="url(#path-1-inside-1_1489_4817)"/>
</g>
<defs>
<filter id="filter0_d_1489_4817" x="-1" y="0" width="18.1924" height="18.1924" filterUnits="userSpaceOnUse" color-interpolation-filters="sRGB">
<feFlood flood-opacity="0" result="BackgroundImageFix"/>
<feColorMatrix in="SourceAlpha" type="matrix" values="0 0 0 0 0 0 0 0 0 0 0 0 0 0 0 0 0 0 127 0" result="hardAlpha"/>
<feOffset dy="4"/>
<feGaussianBlur stdDeviation="2"/>
<feComposite in2="hardAlpha" operator="out"/>
<feColorMatrix type="matrix" values="0 0 0 0 0 0 0 0 0 0 0 0 0 0 0 0 0 0 0.25 0"/>
<feBlend mode="normal" in2="BackgroundImageFix" result="effect1_dropShadow_1489_4817"/>
<feBlend mode="normal" in="SourceGraphic" in2="effect1_dropShadow_1489_4817" result="shape"/>
</filter>
</defs>
</svg>
